# xmcd
#
# Track frame offsets:
#	150
#	26859
#	45386
#	67439
#	89757
#	116225
#	153651
#	174921
#	203236
#	230793
#	257745
#	276348
#	298475
#
# Disc length: 4345 seconds
#
# Revision: 297555451
# Processed by: cddbd v1.5.2PL0 Copyright (c) Steve Scherf et al.
# Submitted via: EZCDAudioConverter 8.0.2.1
#
DISCID=d710f70d
DTITLE=Công Lâm - Chàng Trai Việt
DYEAR=2011
DGENRE=World Pop
TTITLE0=Công Lâm - Chàng Trai Nước Việt
TTITLE1=Công Lâm - Tiếng dân chài
TTITLE2=Công Lâm - Trăng mơ
TTITLE3=Công Lâm - Tình ca
TTITLE4=Công Lâm - Hướng về Hà Nội
TTITLE5=Công Lâm - Áo anh sứt chỉ đường tà
TTITLE6=Công Lâm - Quê nhà
TTITLE7=Công Lâm - Hà Nội linh thiêng và hào hoa
TTITLE8=Công Lâm - Hồn Việt
TTITLE9=Soundtrack - Chàng Trai Nước Việt
TTITLE10=Soundtrack - Tiếng dân chài
TTITLE11=Soundtrack - Trăng mơ
TTITLE12=Soundtrack - Hồn Việt
EXTD=
EXTT0=
EXTT1=
EXTT2=
EXTT3=
EXTT4=
EXTT5=
EXTT6=
EXTT7=
EXTT8=
EXTT9=
EXTT10=
EXTT11=
EXTT12=
PLAYORDER=
